# Blender v2.76 (sub 0) OBJ File: 'coal.blend'
# www.blender.org
o Cube
v -0.253416 -0.064937 0.021223
v -0.289416 -0.064937 -0.014777
v -0.253416 -0.100937 -0.014777
v -0.253416 0.044536 0.021223
v -0.253416 0.080536 -0.014777
v -0.289416 0.044536 -0.014777
v -0.253416 -0.064937 -0.160251
v -0.253416 -0.100937 -0.124251
v -0.289416 -0.064937 -0.124251
v -0.253416 0.080536 -0.124251
v -0.253416 0.044536 -0.160251
v -0.289416 0.044536 -0.124251
v -0.143943 -0.064937 0.021223
v -0.143943 -0.100937 -0.014777
v -0.107943 -0.064937 -0.014777
v -0.143943 0.080536 -0.014777
v -0.143943 0.044536 0.021223
v -0.107943 0.044536 -0.014777
v -0.107943 -0.064937 -0.124251
v -0.143943 -0.100937 -0.124251
v -0.143943 -0.064937 -0.160251
v -0.143943 0.080536 -0.124251
v -0.107943 0.044536 -0.124251
v -0.143943 0.044536 -0.160251
v -0.069742 -0.068460 -0.175195
v -0.105742 -0.068460 -0.211195
v -0.069742 -0.104460 -0.211195
v -0.069742 0.031809 -0.175195
v -0.069742 0.067809 -0.211195
v -0.105742 0.031809 -0.211195
v -0.069742 -0.068460 -0.347463
v -0.069742 -0.104460 -0.311463
v -0.105742 -0.068460 -0.311463
v -0.069742 0.067809 -0.311463
v -0.069742 0.031809 -0.347463
v -0.105742 0.031809 -0.311463
v 0.030527 -0.068460 -0.175195
v 0.030527 -0.104460 -0.211195
v 0.066527 -0.068460 -0.211195
v 0.030527 0.067809 -0.211195
v 0.030527 0.031809 -0.175195
v 0.066527 0.031809 -0.211195
v 0.066527 -0.068460 -0.311463
v 0.030527 -0.104460 -0.311463
v 0.030527 -0.068460 -0.347463
v 0.030527 0.067809 -0.311463
v 0.066527 0.031809 -0.311463
v 0.030527 0.031809 -0.347463
v 0.104417 -0.064937 0.039014
v 0.068417 -0.064937 0.003014
v 0.104417 -0.100937 0.003014
v 0.104417 0.044536 0.039014
v 0.104417 0.080536 0.003014
v 0.068417 0.044536 0.003014
v 0.104417 -0.064937 -0.142459
v 0.104417 -0.100937 -0.106459
v 0.068417 -0.064937 -0.106459
v 0.104417 0.080536 -0.106459
v 0.104417 0.044536 -0.142459
v 0.068417 0.044536 -0.106459
v 0.213891 -0.064937 0.039014
v 0.213891 -0.100937 0.003014
v 0.249891 -0.064937 0.003014
v 0.213891 0.080536 0.003014
v 0.213891 0.044536 0.039014
v 0.249891 0.044536 0.003014
v 0.249891 -0.064937 -0.106459
v 0.213891 -0.100937 -0.106459
v 0.213891 -0.064937 -0.142459
v 0.213891 0.080536 -0.106459
v 0.249891 0.044536 -0.106459
v 0.213891 0.044536 -0.142459
v 0.046195 -0.027131 0.267742
v 0.010195 -0.027131 0.231742
v 0.046195 -0.063131 0.231742
v 0.046195 0.082343 0.267742
v 0.046195 0.118343 0.231742
v 0.010195 0.082343 0.231742
v 0.046195 -0.027131 0.086268
v 0.046195 -0.063131 0.122268
v 0.010195 -0.027131 0.122268
v 0.046195 0.118343 0.122268
v 0.046195 0.082343 0.086268
v 0.010195 0.082343 0.122268
v 0.155669 -0.027131 0.267742
v 0.155669 -0.063131 0.231742
v 0.191669 -0.027131 0.231742
v 0.155669 0.118343 0.231742
v 0.155669 0.082343 0.267742
v 0.191669 0.082343 0.231742
v 0.191669 -0.027131 0.122268
v 0.155669 -0.063131 0.122268
v 0.155669 -0.027131 0.086268
v 0.155669 0.118343 0.122268
v 0.191669 0.082343 0.122268
v 0.155669 0.082343 0.086268
v 0.165491 -0.068460 -0.173424
v 0.129491 -0.068460 -0.209424
v 0.165491 -0.104460 -0.209424
v 0.165491 0.031809 -0.173424
v 0.165491 0.067809 -0.209424
v 0.129491 0.031809 -0.209424
v 0.165491 -0.068460 -0.345692
v 0.165491 -0.104460 -0.309692
v 0.129491 -0.068460 -0.309692
v 0.165491 0.067809 -0.309692
v 0.165491 0.031809 -0.345692
v 0.129491 0.031809 -0.309692
v 0.265759 -0.068460 -0.173424
v 0.265759 -0.104460 -0.209424
v 0.301759 -0.068460 -0.209424
v 0.265759 0.067809 -0.209424
v 0.265759 0.031809 -0.173424
v 0.301759 0.031809 -0.209424
v 0.301759 -0.068460 -0.309692
v 0.265759 -0.104460 -0.309692
v 0.265759 -0.068460 -0.345692
v 0.265759 0.067809 -0.309692
v 0.301759 0.031809 -0.309692
v 0.265759 0.031809 -0.345692
v -0.177505 -0.064937 0.233028
v -0.213505 -0.064937 0.197028
v -0.177505 -0.100937 0.197028
v -0.177505 0.044536 0.233028
v -0.177505 0.080536 0.197028
v -0.213505 0.044536 0.197028
v -0.177505 -0.064937 0.051555
v -0.177505 -0.100937 0.087555
v -0.213505 -0.064937 0.087555
v -0.177505 0.080536 0.087555
v -0.177505 0.044536 0.051555
v -0.213505 0.044536 0.087555
v -0.068031 -0.064937 0.233028
v -0.068031 -0.100937 0.197028
v -0.032031 -0.064937 0.197028
v -0.068031 0.080536 0.197028
v -0.068031 0.044536 0.233028
v -0.032031 0.044536 0.197028
v -0.032031 -0.064937 0.087555
v -0.068031 -0.100937 0.087555
v -0.068031 -0.064937 0.051555
v -0.068031 0.080536 0.087555
v -0.032031 0.044536 0.087555
v -0.068031 0.044536 0.051555
vt 0.239675 0.760325
vt 0.239675 0.639675
vt 0.360325 0.639675
vt 0.039675 0.239675
vt 0.160325 0.239675
vt 0.160325 0.360325
vt 0.239675 0.839675
vt 0.350180 0.839675
vt 0.350180 0.950180
vt 0.160325 0.839675
vt 0.160325 0.960325
vt 0.039675 0.960325
vt 0.360325 0.439675
vt 0.360325 0.560325
vt 0.239675 0.560325
vt 0.039675 0.439675
vt 0.160325 0.439675
vt 0.160325 0.560325
vt 0.950180 0.750180
vt 0.839675 0.750180
vt 0.839675 0.639675
vt 0.839675 0.239675
vt 0.950180 0.239675
vt 0.950180 0.350180
vt 0.439675 0.239675
vt 0.560325 0.239675
vt 0.560325 0.360325
vt 0.750180 0.950180
vt 0.639675 0.950180
vt 0.639675 0.839675
vt 0.950180 0.439675
vt 0.950180 0.550180
vt 0.839675 0.550180
vt 0.550180 0.950180
vt 0.439675 0.950180
vt 0.439675 0.839675
vt 0.760325 0.760325
vt 0.639675 0.760325
vt 0.639675 0.639675
vt 0.239675 0.039675
vt 0.360325 0.039675
vt 0.360325 0.160325
vt 0.639675 0.439675
vt 0.760325 0.439675
vt 0.760325 0.560325
vt 0.560325 0.639675
vt 0.560325 0.760325
vt 0.439675 0.760325
vt 0.160325 0.639675
vt 0.160325 0.760325
vt 0.039675 0.760325
vt 0.439675 0.039675
vt 0.560325 0.039675
vt 0.560325 0.160325
vt 0.639675 0.239675
vt 0.760325 0.239675
vt 0.760325 0.360325
vt 0.039675 0.039675
vt 0.160325 0.039675
vt 0.160325 0.160325
vt 0.960325 0.160325
vt 0.839675 0.160325
vt 0.839675 0.039675
vt 0.760325 0.039675
vt 0.760325 0.160325
vt 0.639675 0.160325
vt 0.360325 0.239675
vt 0.360325 0.360325
vt 0.239675 0.360325
vt 0.400000 0.560325
vt 0.360325 0.600000
vt 0.360325 0.400000
vt 0.400000 0.439675
vt 0.200000 0.560325
vt 0.160325 0.600000
vt 0.200000 0.960325
vt 0.160325 1.000000
vt 0.239675 0.600000
vt 0.039675 0.839675
vt 0.000000 0.839675
vt 0.039675 0.800000
vt 0.200000 0.360325
vt 0.160325 0.400000
vt 0.160325 0.800000
vt 0.200000 0.839675
vt 0.989855 0.550180
vt 0.950180 0.589855
vt 0.950180 0.400000
vt 0.989855 0.439675
vt 0.400000 0.839675
vt 0.439675 0.800000
vt 0.639675 0.989855
vt 0.600000 0.950180
vt 0.839675 0.589855
vt 0.800000 0.550180
vt 0.750180 0.839675
vt 0.750180 0.800000
vt 0.789855 0.839675
vt 0.989855 0.350180
vt 0.950180 0.389855
vt 0.789855 0.950180
vt 0.750180 0.989855
vt 0.200000 0.760325
vt 0.200000 0.639675
vt 0.600000 0.160325
vt 0.560325 0.200000
vt 0.600000 0.760325
vt 0.560325 0.800000
vt 0.000000 0.760325
vt 0.439675 0.639675
vt 0.400000 0.639675
vt 0.439675 0.600000
vt 0.400000 0.160325
vt 0.360325 0.200000
vt 0.560325 0.600000
vt 0.600000 0.639675
vt 0.800000 0.160325
vt 0.760325 0.200000
vt 0.760325 0.000000
vt 0.800000 0.039675
vt 0.239675 0.400000
vt 0.839675 0.200000
vt 0.639675 0.200000
vt 0.960325 0.039675
vt 0.960325 0.000000
vt 1.000000 0.039675
vt 0.200000 0.160325
vt 0.160325 0.200000
vt 1.000000 0.160325
vt 0.960325 0.200000
vt 0.039675 1.000000
vt 0.039675 0.600000
vt 0.360325 0.760325
vt 0.360325 0.800000
vt 0.239675 0.800000
vt 0.200000 0.439675
vt 0.000000 0.960325
vt 0.400000 0.760325
vt 0.600000 0.839675
vt 0.550180 0.800000
vt 0.950180 0.639675
vt 0.989855 0.639675
vt 0.989855 0.750180
vt 0.839675 0.389855
vt 0.950180 0.789855
vt 0.839675 0.789855
vt 0.800000 0.439675
vt 0.800000 0.750180
vt 0.800000 0.639675
vt 0.639675 0.800000
vt 0.839675 0.600000
vt 0.950180 0.600000
vt 0.760325 0.639675
vt 0.800000 0.760325
vt 0.239675 0.200000
vt 0.760325 0.800000
vt 0.000000 0.639675
vt 0.639675 0.600000
vt 0.760325 0.600000
vt 0.200000 0.239675
vt 0.639675 0.360325
vt 0.600000 0.360325
vt 0.600000 0.239675
vt 0.039675 0.200000
vt 0.600000 0.039675
vt 0.800000 0.239675
vt 0.800000 0.360325
vt 0.839675 0.000000
vt 0.760325 0.400000
vt 0.639675 0.400000
vt 0.439675 0.160325
vt 0.439675 0.439675
vt 0.560325 0.439675
vt 0.560325 0.560325
vt 0.039675 0.360325
vt 0.239675 0.950180
vt 0.239675 0.439675
vt 0.039675 0.560325
vt 0.839675 0.350180
vt 0.439675 0.360325
vt 0.839675 0.439675
vt 0.550180 0.839675
vt 0.239675 0.160325
vt 0.639675 0.560325
vt 0.039675 0.639675
vt 0.039675 0.160325
vt 0.639675 0.039675
vt 0.239675 0.239675
vt 0.439675 0.560325
vn 0.000000 -1.000000 0.000000
vn 1.000000 0.000000 0.000000
vn -1.000000 0.000000 0.000000
vn 0.000000 1.000000 0.000000
vn 0.000000 0.000000 1.000000
vn 0.000000 0.000000 -1.000000
vn -0.577400 -0.577400 0.577400
vn -0.577400 0.577400 0.577400
vn -0.577400 -0.577400 -0.577400
vn -0.577400 0.577400 -0.577400
vn 0.577400 -0.577400 0.577400
vn 0.577400 0.577400 0.577400
vn 0.577400 -0.577400 -0.577400
vn 0.577400 0.577400 -0.577400
vn 0.577400 -0.577300 0.577400
vn 0.577400 0.577300 0.577400
vn 0.577400 0.577300 -0.577400
vn -0.577300 -0.577400 0.577400
vn -0.577300 0.577400 0.577400
vn -0.577400 -0.577300 0.577400
vn -0.577400 0.577300 0.577400
vn -0.707100 0.000000 0.707100
vn -0.707100 0.707100 0.000000
vn -0.707100 0.000000 -0.707100
vn -0.707100 -0.707100 0.000000
vn 0.000000 0.707100 -0.707100
vn 0.707100 0.000000 -0.707100
vn 0.000000 -0.707100 -0.707100
vn 0.707100 0.707100 0.000000
vn 0.707100 0.000000 0.707100
vn 0.707100 -0.707100 0.000000
vn 0.000000 0.707100 0.707100
vn 0.000000 -0.707100 0.707100
s off
f 8/1/1 20/2/1 14/3/1
f 18/4/2 15/5/2 19/6/2
f 36/7/3 33/8/3 26/9/3
f 22/10/4 10/11/4 5/12/4
f 4/13/5 1/14/5 13/15/5
f 24/16/6 21/17/6 7/18/6
f 32/19/1 44/20/1 38/21/1
f 42/22/2 39/23/2 43/24/2
f 60/25/3 57/26/3 50/27/3
f 46/28/4 34/29/4 29/30/4
f 28/31/5 25/32/5 37/33/5
f 48/34/6 45/35/6 31/36/6
f 56/37/1 68/38/1 62/39/1
f 66/40/2 63/41/2 67/42/2
f 84/43/3 81/44/3 74/45/3
f 70/46/4 58/47/4 53/48/4
f 52/49/5 49/50/5 61/51/5
f 72/52/6 69/53/6 55/54/6
f 80/55/1 92/56/1 86/57/1
f 90/58/2 87/59/2 91/60/2
f 108/7/3 105/8/3 98/9/3
f 94/61/4 82/62/4 77/63/4
f 76/64/5 73/65/5 85/66/5
f 96/67/6 93/68/6 79/69/6
f 104/19/1 116/20/1 110/21/1
f 114/22/2 111/23/2 115/24/2
f 132/25/3 129/26/3 122/27/3
f 118/28/4 106/29/4 101/30/4
f 100/31/5 97/32/5 109/33/5
f 120/34/6 117/35/6 103/36/6
f 128/37/1 140/38/1 134/39/1
f 138/40/2 135/41/2 139/42/2
f 142/46/4 130/47/4 125/48/4
f 124/49/5 121/50/5 133/51/5
f 144/52/6 141/53/6 127/54/6
f 1/14/7 2/70/7 3/71/7
f 4/13/8 5/72/8 6/73/8
f 7/18/9 8/74/9 9/75/9
f 10/11/10 11/76/10 12/77/10
f 13/15/11 14/78/11 15/74/11
f 16/79/12 17/80/12 18/81/12
f 19/6/13 20/82/13 21/83/13
f 22/10/14 23/84/14 24/85/14
f 25/32/7 26/86/7 27/87/7
f 28/31/8 29/88/8 30/89/8
f 31/36/9 32/90/9 33/91/9
f 34/29/10 35/92/10 36/93/10
f 37/33/11 38/94/11 39/95/11
f 40/96/12 41/97/12 42/98/12
f 43/24/13 44/99/13 45/100/13
f 46/28/14 47/101/14 48/102/14
f 49/50/7 50/103/7 51/84/7
f 52/49/8 53/75/8 54/104/8
f 55/54/9 56/105/9 57/106/9
f 58/47/10 59/107/10 60/108/10
f 61/51/15 62/81/15 63/109/15
f 64/110/16 65/111/16 66/112/16
f 67/42/13 68/113/13 69/114/13
f 70/46/17 71/115/17 72/116/17
f 73/65/18 74/117/18 75/118/18
f 76/64/19 77/119/19 78/120/19
f 79/69/9 80/121/9 81/82/9
f 82/62/10 83/122/10 84/117/10
f 85/66/11 86/123/11 87/105/11
f 88/124/12 89/125/12 90/126/12
f 91/60/13 92/127/13 93/128/13
f 94/61/14 95/129/14 96/130/14
f 97/32/20 98/86/20 99/87/20
f 100/31/21 101/88/21 102/89/21
f 103/36/9 104/90/9 105/91/9
f 106/29/10 107/92/10 108/93/10
f 109/33/11 110/94/11 111/95/11
f 112/96/12 113/97/12 114/98/12
f 115/24/13 116/99/13 117/100/13
f 118/28/14 119/101/14 120/102/14
f 121/50/7 122/103/7 123/84/7
f 124/49/8 125/75/8 126/104/8
f 127/54/9 128/105/9 129/106/9
f 130/47/10 131/107/10 132/108/10
f 133/51/11 134/81/11 135/109/11
f 136/110/12 137/111/12 138/112/12
f 139/42/13 140/113/13 141/114/13
f 142/46/14 143/115/14 144/116/14
f 4/13/22 6/73/22 2/70/22
f 10/11/23 12/77/23 6/131/23
f 7/18/24 9/75/24 12/132/24
f 3/133/25 2/134/25 9/135/25
f 22/10/26 24/85/26 11/76/26
f 19/6/27 21/17/27 24/16/27
f 8/1/28 7/103/28 21/104/28
f 22/10/29 16/79/29 18/81/29
f 13/15/30 15/74/30 18/136/30
f 20/2/31 19/78/31 15/71/31
f 5/12/32 4/137/32 17/80/32
f 14/3/33 13/111/33 1/138/33
f 28/31/22 30/89/22 26/86/22
f 34/29/23 36/93/23 30/139/23
f 31/36/24 33/91/24 36/140/24
f 27/141/25 26/142/25 33/143/25
f 46/28/26 48/102/26 35/92/26
f 43/24/27 45/100/27 48/144/27
f 32/19/28 31/145/28 45/146/28
f 40/96/29 42/98/29 47/101/29
f 37/33/30 39/95/30 42/147/30
f 44/20/31 43/148/31 39/149/31
f 29/30/32 28/150/32 41/97/32
f 38/21/33 37/151/33 25/152/33
f 52/49/22 54/104/22 50/103/22
f 53/48/23 58/47/23 60/108/23
f 55/54/24 57/26/24 60/25/24
f 51/153/25 50/149/25 57/154/25
f 70/46/26 72/116/26 59/107/26
f 67/42/27 69/114/27 72/155/27
f 56/37/28 55/156/28 69/150/28
f 64/110/29 66/112/29 71/115/29
f 61/51/30 63/109/30 66/157/30
f 68/38/31 67/107/31 63/116/31
f 53/48/32 52/138/32 65/111/32
f 62/39/33 61/158/33 49/159/33
f 76/64/22 78/120/22 74/117/22
f 82/62/23 84/117/23 78/120/23
f 79/69/24 81/82/24 84/160/24
f 75/161/25 74/162/25 81/163/25
f 94/61/26 96/130/26 83/122/26
f 91/60/27 93/128/27 96/164/27
f 80/55/28 79/123/28 93/118/28
f 88/124/29 90/126/29 95/129/29
f 85/66/30 87/105/30 90/165/30
f 92/56/31 91/166/31 87/167/31
f 77/63/32 76/168/32 89/125/32
f 86/57/33 85/169/33 73/170/33
f 100/31/22 102/89/22 98/86/22
f 106/29/23 108/93/23 102/139/23
f 103/36/24 105/91/24 108/140/24
f 99/141/25 98/142/25 105/143/25
f 118/28/26 120/102/26 107/92/26
f 115/24/27 117/100/27 120/144/27
f 104/19/28 103/145/28 117/146/28
f 112/96/29 114/98/29 119/101/29
f 109/33/30 111/95/30 114/147/30
f 116/20/31 115/148/31 111/149/31
f 101/30/32 100/150/32 113/97/32
f 110/21/33 109/151/33 97/152/33
f 124/49/22 126/104/22 122/103/22
f 130/47/23 132/108/23 126/91/23
f 131/171/24 127/54/24 129/26/24
f 123/153/25 122/149/25 129/154/25
f 142/46/26 144/116/26 131/107/26
f 139/42/27 141/114/27 144/155/27
f 128/37/28 127/156/28 141/150/28
f 142/46/29 136/110/29 138/112/29
f 133/51/30 135/109/30 138/157/30
f 140/38/31 139/107/31 135/116/31
f 125/48/32 124/138/32 137/111/32
f 134/39/33 133/158/33 121/159/33
f 12/172/3 9/173/3 2/174/3
f 3/133/1 8/1/1 14/3/1
f 23/175/2 18/4/2 19/6/2
f 30/176/3 36/7/3 26/9/3
f 16/79/4 22/10/4 5/12/4
f 17/177/5 4/13/5 13/15/5
f 11/178/6 24/16/6 7/18/6
f 27/141/1 32/19/1 38/21/1
f 47/179/2 42/22/2 43/24/2
f 54/180/3 60/25/3 50/27/3
f 40/96/4 46/28/4 29/30/4
f 41/181/5 28/31/5 37/33/5
f 35/182/6 48/34/6 31/36/6
f 51/153/1 56/37/1 62/39/1
f 71/183/2 66/40/2 67/42/2
f 78/184/3 84/43/3 74/45/3
f 64/110/4 70/46/4 53/48/4
f 65/185/5 52/49/5 61/51/5
f 59/171/6 72/52/6 55/54/6
f 75/161/1 80/55/1 86/57/1
f 95/186/2 90/58/2 91/60/2
f 102/176/3 108/7/3 98/9/3
f 88/124/4 94/61/4 77/63/4
f 89/187/5 76/64/5 85/66/5
f 83/188/6 96/67/6 79/69/6
f 99/141/1 104/19/1 110/21/1
f 119/179/2 114/22/2 115/24/2
f 126/180/3 132/25/3 122/27/3
f 112/96/4 118/28/4 101/30/4
f 113/181/5 100/31/5 109/33/5
f 107/182/6 120/34/6 103/36/6
f 123/153/1 128/37/1 134/39/1
f 143/183/2 138/40/2 139/42/2
f 136/110/4 142/46/4 125/48/4
f 137/185/5 124/49/5 133/51/5
f 131/171/6 144/52/6 127/54/6
f 1/14/22 4/13/22 2/70/22
f 5/12/23 10/11/23 6/131/23
f 11/178/24 7/18/24 12/132/24
f 8/1/25 3/133/25 9/135/25
f 10/11/26 22/10/26 11/76/26
f 23/175/27 19/6/27 24/16/27
f 20/2/28 8/1/28 21/104/28
f 23/84/29 22/10/29 18/81/29
f 17/177/30 13/15/30 18/136/30
f 14/3/31 20/2/31 15/71/31
f 16/79/32 5/12/32 17/80/32
f 3/133/33 14/3/33 1/138/33
f 25/32/22 28/31/22 26/86/22
f 29/30/23 34/29/23 30/139/23
f 35/182/24 31/36/24 36/140/24
f 32/19/25 27/141/25 33/143/25
f 34/29/26 46/28/26 35/92/26
f 47/179/27 43/24/27 48/144/27
f 44/20/28 32/19/28 45/146/28
f 46/28/29 40/96/29 47/101/29
f 41/181/30 37/33/30 42/147/30
f 38/21/31 44/20/31 39/149/31
f 40/96/32 29/30/32 41/97/32
f 27/141/33 38/21/33 25/152/33
f 49/50/22 52/49/22 50/103/22
f 54/91/23 53/48/23 60/108/23
f 59/171/24 55/54/24 60/25/24
f 56/37/25 51/153/25 57/154/25
f 58/47/26 70/46/26 59/107/26
f 71/183/27 67/42/27 72/155/27
f 68/38/28 56/37/28 69/150/28
f 70/46/29 64/110/29 71/115/29
f 65/185/30 61/51/30 66/157/30
f 62/39/31 68/38/31 63/116/31
f 64/110/32 53/48/32 65/111/32
f 51/153/33 62/39/33 49/159/33
f 73/65/22 76/64/22 74/117/22
f 77/63/23 82/62/23 78/120/23
f 83/188/24 79/69/24 84/160/24
f 80/55/25 75/161/25 81/163/25
f 82/62/26 94/61/26 83/122/26
f 95/186/27 91/60/27 96/164/27
f 92/56/28 80/55/28 93/118/28
f 94/61/29 88/124/29 95/129/29
f 89/187/30 85/66/30 90/165/30
f 86/57/31 92/56/31 87/167/31
f 88/124/32 77/63/32 89/125/32
f 75/161/33 86/57/33 73/170/33
f 97/32/22 100/31/22 98/86/22
f 101/30/23 106/29/23 102/139/23
f 107/182/24 103/36/24 108/140/24
f 104/19/25 99/141/25 105/143/25
f 106/29/26 118/28/26 107/92/26
f 119/179/27 115/24/27 120/144/27
f 116/20/28 104/19/28 117/146/28
f 118/28/29 112/96/29 119/101/29
f 113/181/30 109/33/30 114/147/30
f 110/21/31 116/20/31 111/149/31
f 112/96/32 101/30/32 113/97/32
f 99/141/33 110/21/33 97/152/33
f 121/50/22 124/49/22 122/103/22
f 125/48/23 130/47/23 126/91/23
f 132/25/24 131/171/24 129/26/24
f 128/37/25 123/153/25 129/154/25
f 130/47/26 142/46/26 131/107/26
f 143/183/27 139/42/27 144/155/27
f 140/38/28 128/37/28 141/150/28
f 143/115/29 142/46/29 138/112/29
f 137/185/30 133/51/30 138/157/30
f 134/39/31 140/38/31 135/116/31
f 136/110/32 125/48/32 137/111/32
f 123/153/33 134/39/33 121/159/33
f 6/189/3 12/172/3 2/174/3
